<svg xmlns="http://www.w3.org/2000/svg" viewBox="0 0 229.01 109.4"><defs><style>.cls-1{fill:#fff;}.cls-2{fill:#f9f9fa;}</style></defs><title>Asset 1</title><g id="Layer_2" data-name="Layer 2"><g id="Layer_1-2" data-name="Layer 1"><path class="cls-1" d="M56.91,6a13.07,13.07,0,0,0-17.56,5.68L1.43,85.85A13.05,13.05,0,1,0,24.67,97.73L62.59,23.55A13.07,13.07,0,0,0,56.91,6Z"/><path class="cls-1" d="M45,6a13,13,0,0,0-5.63,17.57L77.48,97.66a13,13,0,1,0,23.2-11.93L62.57,11.64A13.06,13.06,0,0,0,45,6Z"/><path class="cls-1" d="M136,0a13,13,0,0,0-13,13.05L123,96.36a13,13,0,1,0,26.09,0l0-83.31A13,13,0,0,0,136,0Z"/><circle class="cls-2" cx="202.91" cy="28.55" r="26.11"/></g></g></svg>